<svg width="989.680126953125px" height="448.0174926757812px" xmlns="http://www.w3.org/2000/svg" viewBox="-244.84006347656248 -149.0087463378906 989.680126953125 448.0174926757812" style="background: none;" preserveAspectRatio="xMidYMid"><defs><filter id="editing-hover" x="-100%" y="-100%" width="300%" height="300%"><feFlood flood-color="#ffffff" result="flood"></feFlood><feComposite operator="in" in2="SourceAlpha" in="flood" result="shadow"></feComposite><feOffset dx="-4" dy="-4" in="SourceGraphic" result="offset-1"></feOffset><feOffset dx="4" dy="4" in="shadow" result="offset-2"></feOffset><feMerge><feMergeNode in="offset-2"></feMergeNode><feMergeNode in="offset-1"></feMergeNode></feMerge></filter></defs><g filter="url(#editing-hover)"><g transform="translate(-106.70001220703125, 138.89999771118164)"><path d="M85.20 0.60L31.60 0.60L31.60 0.60Q23 0.60 18-4.40L18-4.40L18-4.40Q13-9.40 13-18L13-18L13-121.40L13-121.40Q15.20-121.80 20-122.50L20-122.50L20-122.50Q24.80-123.20 29.20-123.20L29.20-123.20L29.20-123.20Q33.80-123.20 37.30-122.50L37.30-122.50L37.30-122.50Q40.80-121.80 43.20-120L43.20-120L43.20-120Q45.60-118.20 46.80-115L46.80-115L46.80-115Q48-111.80 48-106.60L48-106.60L48-27.60L93.80-27.60L93.80-27.60Q95.20-25.40 96.40-21.70L96.40-21.70L96.40-21.70Q97.60-18 97.60-14L97.60-14L97.60-14Q97.60-6 94.20-2.70L94.20-2.70L94.20-2.70Q90.80 0.60 85.20 0.60L85.20 0.60ZM115.60-18L115.60-102.60L115.60-102.60Q115.60-111.20 120.60-116.20L120.60-116.20L120.60-116.20Q125.60-121.20 134.20-121.20L134.20-121.20L200.20-121.20L200.20-121.20Q201.60-119 202.70-115.40L202.70-115.40L202.70-115.40Q203.80-111.80 203.80-107.80L203.80-107.80L203.80-107.80Q203.80-100.20 200.50-97L200.50-97L200.50-97Q197.20-93.80 191.80-93.80L191.80-93.80L149.60-93.80L149.60-75.20L194.60-75.20L194.60-75.20Q196-73 197.10-69.50L197.10-69.50L197.10-69.50Q198.20-66 198.20-62L198.20-62L198.20-62Q198.20-54.40 195-51.20L195-51.20L195-51.20Q191.80-48 186.40-48L186.40-48L149.60-48L149.60-27L201-27L201-27Q202.40-24.80 203.50-21.20L203.50-21.20L203.50-21.20Q204.60-17.60 204.60-13.60L204.60-13.60L204.60-13.60Q204.60-6 201.30-2.70L201.30-2.70L201.30-2.70Q198 0.60 192.60 0.60L192.60 0.60L134.20 0.60L134.20 0.60Q125.60 0.60 120.60-4.40L120.60-4.40L120.60-4.40Q115.60-9.40 115.60-18L115.60-18ZM251.00-117.60L251.00-117.60L251.00-117.60Q254.40-119.60 261.30-121.40L261.30-121.40L261.30-121.40Q268.20-123.20 275.20-123.20L275.20-123.20L275.20-123.20Q285.20-123.20 292.90-120.30L292.90-120.30L292.90-120.30Q300.60-117.40 302.80-111.20L302.80-111.20L302.80-111.20Q306.40-100.80 310.60-87L310.60-87L310.60-87Q314.80-73.20 319-58.50L319-58.50L319-58.50Q323.20-43.80 327.20-29.50L327.20-29.50L327.20-29.50Q331.20-15.20 334.20-4.20L334.20-4.20L334.20-4.20Q331.80-1.40 327 0.30L327 0.30L327 0.30Q322.20 2 315.60 2L315.60 2L315.60 2Q310.80 2 307.50 1.20L307.50 1.20L307.50 1.20Q304.20 0.40 302.10-1.20L302.10-1.20L302.10-1.20Q300-2.80 298.70-5.40L298.70-5.40L298.70-5.40Q297.40-8 296.40-11.40L296.40-11.40L292.80-25.20L256.60-25.20L256.60-25.20Q255.00-19.20 253.40-12.80L253.40-12.80L253.40-12.80Q251.80-6.40 250.20-0.40L250.20-0.40L250.20-0.40Q247.40 0.60 244.30 1.30L244.30 1.30L244.30 1.30Q241.20 2 236.80 2L236.80 2L236.80 2Q226.60 2 221.70-1.50L221.70-1.50L221.70-1.50Q216.80-5 216.80-11.20L216.80-11.20L216.80-11.20Q216.80-14 217.60-16.80L217.60-16.80L217.60-16.80Q218.40-19.60 219.40-23.40L219.40-23.40L219.40-23.40Q220.80-28.80 223.30-36.80L223.30-36.80L223.30-36.80Q225.80-44.80 228.80-54.10L228.80-54.10L228.80-54.10Q231.80-63.40 235.20-73.20L235.20-73.20L235.20-73.20Q238.60-83 241.60-91.70L241.60-91.70L241.60-91.70Q244.60-100.40 247.10-107.20L247.10-107.20L247.10-107.20Q249.60-114 251.00-117.60ZM276.20-91.80L275-91.80L275-91.80Q272.20-83.40 268.70-73.10L268.70-73.10L268.70-73.10Q265.20-62.80 262.40-52.20L262.40-52.20L287.20-52.20L287.20-52.20Q284.40-63 281.50-73.30L281.50-73.30L281.50-73.30Q278.60-83.60 276.20-91.80L276.20-91.80ZM376.40-117.60L376.40-117.60L376.40-117.60Q379.80-119.60 386.70-121.40L386.70-121.40L386.70-121.40Q393.60-123.20 400.60-123.20L400.60-123.20L400.60-123.20Q410.60-123.20 418.30-120.30L418.30-120.30L418.30-120.30Q426-117.40 428.20-111.20L428.20-111.20L428.20-111.20Q431.80-100.80 436-87L436-87L436-87Q440.20-73.20 444.40-58.50L444.40-58.50L444.40-58.50Q448.60-43.80 452.60-29.50L452.60-29.50L452.60-29.50Q456.60-15.20 459.60-4.20L459.60-4.20L459.60-4.20Q457.20-1.40 452.40 0.30L452.40 0.30L452.40 0.30Q447.60 2 441 2L441 2L441 2Q436.20 2 432.90 1.20L432.90 1.20L432.90 1.20Q429.60 0.40 427.50-1.20L427.50-1.20L427.50-1.20Q425.40-2.80 424.10-5.40L424.10-5.40L424.10-5.40Q422.80-8 421.80-11.40L421.80-11.40L418.20-25.20L382-25.20L382-25.20Q380.40-19.20 378.80-12.80L378.80-12.80L378.80-12.80Q377.20-6.40 375.60-0.40L375.60-0.40L375.60-0.40Q372.80 0.60 369.70 1.30L369.70 1.30L369.70 1.30Q366.60 2 362.20 2L362.20 2L362.20 2Q352 2 347.10-1.50L347.10-1.50L347.10-1.50Q342.20-5 342.20-11.20L342.20-11.20L342.20-11.20Q342.20-14 343-16.80L343-16.80L343-16.80Q343.80-19.60 344.80-23.40L344.80-23.40L344.80-23.40Q346.20-28.80 348.70-36.80L348.70-36.80L348.70-36.80Q351.20-44.80 354.20-54.10L354.20-54.10L354.20-54.10Q357.20-63.40 360.60-73.20L360.60-73.20L360.60-73.20Q364-83 367-91.70L367-91.70L367-91.70Q370-100.40 372.50-107.20L372.50-107.20L372.50-107.20Q375-114 376.40-117.60ZM401.60-91.80L400.40-91.80L400.40-91.80Q397.60-83.40 394.10-73.10L394.10-73.10L394.10-73.10Q390.60-62.80 387.80-52.20L387.80-52.20L412.60-52.20L412.60-52.20Q409.80-63 406.90-73.30L406.90-73.30L406.90-73.30Q404-83.60 401.60-91.80L401.60-91.80ZM510.80-95.60L510.80-26L510.80-26Q513-25.60 516.20-25.30L516.20-25.30L516.20-25.30Q519.40-25 522.20-25L522.20-25L522.20-25Q529-25 534.70-27L534.70-27L534.70-27Q540.40-29 544.50-33.20L544.50-33.20L544.50-33.20Q548.60-37.40 550.90-44.10L550.90-44.10L550.90-44.10Q553.20-50.80 553.20-60.20L553.20-60.20L553.20-60.20Q553.20-78.20 544.80-87.30L544.80-87.30L544.80-87.30Q536.40-96.40 522.40-96.40L522.40-96.40L522.40-96.40Q519.60-96.40 516.70-96.20L516.70-96.20L516.70-96.20Q513.80-96 510.80-95.60L510.80-95.60ZM522 3.20L522 3.20L522 3.20Q518.60 3.20 514.20 3L514.20 3L514.20 3Q509.80 2.80 505.10 2.20L505.10 2.20L505.10 2.20Q500.40 1.60 495.70 0.70L495.70 0.70L495.70 0.70Q491-0.20 487-1.80L487-1.80L487-1.80Q476-6 476-16.40L476-16.40L476-109.80L476-109.80Q476-114 478.30-116.30L478.30-116.30L478.30-116.30Q480.60-118.60 484.60-120L484.60-120L484.60-120Q493.20-122.80 502.80-123.70L502.80-123.70L502.80-123.70Q512.40-124.60 520-124.60L520-124.60L520-124.60Q535.60-124.60 548.30-120.80L548.30-120.80L548.30-120.80Q561-117 570.10-109.10L570.10-109.10L570.10-109.10Q579.20-101.20 584.20-89.20L584.20-89.20L584.20-89.20Q589.20-77.20 589.20-60.80L589.20-60.80L589.20-60.80Q589.20-44.80 584.40-32.90L584.40-32.90L584.40-32.90Q579.60-21 570.70-12.90L570.70-12.90L570.70-12.90Q561.80-4.80 549.40-0.80L549.40-0.80L549.40-0.80Q537 3.20 522 3.20ZM652-45.40L643.60-48.20L643.60-48.20Q634.80-51.20 627.60-54.30L627.60-54.30L627.60-54.30Q620.40-57.40 615.20-61.80L615.20-61.80L615.20-61.80Q610-66.20 607.10-72.30L607.10-72.30L607.10-72.30Q604.20-78.40 604.20-87.20L604.20-87.20L604.20-87.20Q604.20-104.20 617.30-114.40L617.30-114.40L617.30-114.40Q630.40-124.60 654-124.60L654-124.60L654-124.60Q662.60-124.60 670-123.40L670-123.40L670-123.40Q677.40-122.20 682.70-119.70L682.70-119.70L682.70-119.70Q688-117.20 691-113.30L691-113.30L691-113.30Q694-109.40 694-104.20L694-104.20L694-104.20Q694-99 691.60-95.30L691.60-95.30L691.60-95.30Q689.20-91.60 685.80-89L685.80-89L685.80-89Q681.40-91.80 674-93.90L674-93.90L674-93.90Q666.60-96 657.80-96L657.80-96L657.80-96Q648.80-96 644.60-93.50L644.60-93.50L644.60-93.50Q640.40-91 640.40-87.20L640.40-87.20L640.40-87.20Q640.40-84.20 643-82.30L643-82.30L643-82.30Q645.60-80.40 650.80-78.80L650.80-78.80L661.40-75.40L661.40-75.40Q680.20-69.40 690.30-60.10L690.30-60.10L690.30-60.10Q700.40-50.80 700.40-34.80L700.40-34.80L700.40-34.80Q700.40-17.80 687-7.30L687-7.30L687-7.30Q673.60 3.20 647.60 3.20L647.60 3.20L647.60 3.20Q638.40 3.20 630.50 1.70L630.50 1.70L630.50 1.70Q622.60 0.20 616.70-2.70L616.70-2.70L616.70-2.70Q610.80-5.60 607.50-9.90L607.50-9.90L607.50-9.90Q604.20-14.20 604.20-19.80L604.20-19.80L604.20-19.80Q604.20-25.60 607.60-29.70L607.60-29.70L607.60-29.70Q611-33.80 615-36L615-36L615-36Q620.60-31.60 628.70-28.40L628.70-28.40L628.70-28.40Q636.80-25.20 646.40-25.20L646.40-25.20L646.40-25.20Q656.20-25.20 660.20-28.20L660.20-28.20L660.20-28.20Q664.20-31.20 664.20-35.20L664.20-35.20L664.20-35.20Q664.20-39.20 661-41.30L661-41.30L661-41.30Q657.80-43.40 652-45.40L652-45.40Z" fill="#ff4400"></path></g></g><style>text {
  font-size: 64px;
  font-family: Arial Black;
  dominant-baseline: central;
  text-anchor: middle;
}</style></svg>